<?xml version="1.0" standalone="no"?><!DOCTYPE svg PUBLIC "-//W3C//DTD SVG 1.1//EN" "http://www.w3.org/Graphics/SVG/1.1/DTD/svg11.dtd"><svg t="1555319672466" class="icon" style="" viewBox="0 0 1024 1024" version="1.1" xmlns="http://www.w3.org/2000/svg" p-id="1395" xmlns:xlink="http://www.w3.org/1999/xlink" width="200" height="200"><defs><style type="text/css"></style></defs><path d="M64 511.5C64 263.8 264.8 63 512.5 63S961 263.8 961 511.5V752c0 61.856-50.144 112-112 112h-56c-61.856 0-112-50.144-112-112V584c0-61.856 50.144-112 112-112h85.908C859.199 287.057 702.673 143 512.5 143S165.8 287.057 146.092 472H232c61.856 0 112 50.144 112 112v168c0 61.856-50.144 112-112 112h-56c-61.856 0-112-50.144-112-112V512v-0.25-0.25zM881 552h-88c-17.673 0-32 14.327-32 32v168c0 17.673 14.327 32 32 32h56c17.673 0 32-14.327 32-32V552z m-737 0v200c0 17.673 14.327 32 32 32h56c17.673 0 32-14.327 32-32V584c0-17.673-14.327-32-32-32h-88z" p-id="1396"></path></svg>