<?xml version="1.0" standalone="no"?><!DOCTYPE svg PUBLIC "-//W3C//DTD SVG 1.1//EN" "http://www.w3.org/Graphics/SVG/1.1/DTD/svg11.dtd"><svg t="1552633655972" class="icon" style="" viewBox="0 0 1024 1024" version="1.1" xmlns="http://www.w3.org/2000/svg" p-id="4259" xmlns:xlink="http://www.w3.org/1999/xlink" width="200" height="200"><defs><style type="text/css"></style></defs><path d="M912 743.8c0 10.3-1.9 23.6-5.7 40-3.8 16.5-7.8 29.4-11.9 38.9-8 19-31.1 39-69.4 60.2-35.5 19.3-70.7 28.9-105.7 28.9-10.3 0-20.4-0.6-30.1-2.1-9.8-1.3-20.8-3.7-32.6-7.1-11.9-3.4-20.8-6.2-26.7-8.2-5.8-2.1-16.4-6.1-31.6-11.6-15.1-5.7-24.4-9.1-27.8-10.3-37.1-13.3-70.3-28.9-99.4-47.2-48.2-29.8-98.1-70.9-150-122.7-51.8-51.8-92.8-102-122.7-150-18.2-29.1-34-62.3-47.2-99.4-1.2-3.4-4.5-12.7-10.3-27.8s-9.6-25.7-11.6-31.6c-2.1-5.8-4.7-14.8-8.2-26.7-3.4-11.9-5.7-22.8-7.1-32.6s-2.1-19.9-2.1-30.1c0-34.9 9.7-70.1 28.9-105.7 21.2-38.2 41.2-61.4 60.2-69.4 9.5-4.1 22.4-8.1 38.9-11.9 16.5-3.8 29.8-5.7 40-5.7 5.2 0 9.4 0.6 11.9 1.6 6.9 2.3 16.8 16.7 30.1 43.2 4.1 7.2 9.8 17.4 17.1 30.8 7.2 13.3 13.9 25.3 19.9 36.1 6.2 10.8 11.9 20.9 17.5 30.4 1.2 1.5 4.4 6.3 10 14.2 5.5 8 9.6 14.7 12.1 20.3 2.6 5.5 3.9 10.9 3.9 16.3 0 7.6-5.4 17.1-16.3 28.4-10.8 11.3-22.6 21.8-35.3 31.4-12.7 9.5-24.4 19.5-35.3 30.1-10.8 10.6-16.3 19.3-16.3 26.1 0 3.4 0.9 7.7 2.9 12.8 1.9 5.1 3.4 9 4.7 11.6 1.3 2.6 3.9 7.2 8 13.6 3.9 6.5 6.2 10.1 6.6 10.8 28.7 51.9 61.7 96.4 98.8 133.5 37.1 37.1 81.6 70.1 133.5 98.8 0.7 0.3 4.2 2.5 10.8 6.6 6.5 3.9 11 6.6 13.6 8 2.6 1.3 6.6 3 11.6 4.7 5.1 1.9 9.4 2.9 12.8 2.9 6.9 0 15.5-5.4 26.1-16.3 10.6-10.8 20.7-22.6 30.1-35.3 9.5-12.7 19.9-24.4 31.4-35.3 11.5-10.9 20.8-16.3 28.4-16.3 5.2 0 10.8 1.3 16.3 3.9s12.1 6.7 20.3 12.1c8 5.5 12.7 8.8 14.2 10 9.5 5.7 19.7 11.6 30.4 17.5 10.8 6.2 22.8 12.7 36.1 19.9 13.3 7.2 23.6 12.9 30.8 17.1 26.5 13.3 40.9 23.3 43.2 30.1 1.6 3.2 2.2 7.3 2.2 12.5z" p-id="4260" fill="#666666"></path></svg>