<?xml version="1.0" standalone="no"?><!DOCTYPE svg PUBLIC "-//W3C//DTD SVG 1.1//EN" "http://www.w3.org/Graphics/SVG/1.1/DTD/svg11.dtd"><svg t="1552633547653" class="icon" style="" viewBox="0 0 1024 1024" version="1.1" xmlns="http://www.w3.org/2000/svg" p-id="3295" xmlns:xlink="http://www.w3.org/1999/xlink" width="200" height="200"><defs><style type="text/css"></style></defs><path d="M915.477 487L536.379 107.99c-13.464-13.464-35.294-13.376-48.759 0.089L108.521 487c-10.26 10.26-12.69 25.858-7.312 38.134 0.301 0.778 0.662 1.524 1.08 2.235l0.014 0.029c0.025 0.04 0.062 0.105 0.103 0.177l0.007-0.002c2.693 4.419 7.542 7.38 13.096 7.38 0.493 0 0.978-0.005 1.459-0.05 0.018 0.024 0.042 0.097 0.06 0.097H183v356.32c0 19.366 16.243 34.68 35.609 34.68h585.597C823.572 926 838 910.686 838 891.32V535h67.274c0.809 0 1.812-0.023 2.609-0.023 5.557 0 10.867-2.904 13.559-7.328 0.134 0.025-0.133-0.023 0 0 6.984-12.6 5.04-29.645-5.965-40.649zM630 873H391V661.64c0-65.845 53.655-126.236 119.5-126.236S630 595.795 630 661.64V873z" fill="#666666" p-id="3296"></path></svg>