<?xml version="1.0" standalone="no"?><!DOCTYPE svg PUBLIC "-//W3C//DTD SVG 1.1//EN" "http://www.w3.org/Graphics/SVG/1.1/DTD/svg11.dtd"><svg t="1552634688249" class="icon" style="" viewBox="0 0 1024 1024" version="1.1" xmlns="http://www.w3.org/2000/svg" p-id="7088" xmlns:xlink="http://www.w3.org/1999/xlink" width="200" height="200"><defs><style type="text/css"></style></defs><path d="M669.48 371.38a283.54 283.54 0 0 1 30.34 1.82C672.58 248.55 536.88 155.9 382 155.9c-173.16 0-315 116-315 263.18 0 85 47.2 154.75 126.05 208.89l-31.5 93.11 110.11-54.26c39.43 7.65 71 15.54 110.35 15.54 9.88 0 19.66-0.48 29.4-1.25a226.47 226.47 0 0 1-9.74-64.82c0-135.19 118.18-244.91 267.81-244.91z m-169.34-83.91c23.72 0 39.42 15.35 39.42 38.63s-15.7 38.73-39.42 38.73-47.3-15.54-47.3-38.73 23.67-38.63 47.3-38.63z m-220.46 77.36c-23.63 0-47.45-15.54-47.45-38.73s23.82-38.63 47.45-38.63S319 302.82 319 326.1s-15.72 38.73-39.32 38.73zM957 612.58C957 488.85 831 388 689.43 388c-149.88 0-267.9 100.85-267.9 224.58 0 123.9 118 224.54 267.9 224.54 31.36 0 63-7.73 94.5-15.5l86.42 46.49-23.7-77.32C909.89 744.15 957 682.36 957 612.58z m-354.44-38.74c-15.68 0-31.5-15.32-31.5-31 0-15.42 15.83-30.93 31.5-30.93 23.82 0 39.42 15.51 39.42 30.93 0.02 15.68-15.6 31-39.42 31z m173.26 0c-15.56 0-31.28-15.32-31.28-31 0-15.42 15.73-30.93 31.28-30.93 23.62 0 39.42 15.51 39.42 30.93 0 15.68-15.79 31-39.42 31z" p-id="7089" fill="#666666"></path></svg>